<?xml version="1.0" encoding="UTF-8" standalone="no"?><svg xmlns="http://www.w3.org/2000/svg" xmlns:xlink="http://www.w3.org/1999/xlink" contentStyleType="text/css" height="277px" preserveAspectRatio="none" style="width:997px;height:277px;background:#FFFFFF;" version="1.1" viewBox="0 0 997 277" width="997px" zoomAndPan="magnify"><defs/><g><!--MD5=[42591781c74864aa6bd8b9830e23a81c]
cluster Docker--><g id="cluster_Docker"><path d="M231.9537,51.5247 C247.8962,31.1915 264.7933,30.9228 280.8802,51.3513 C296.8929,23.6144 316.653,28.6725 332.6517,51.3657 C345.8648,27.7271 364.6924,23.1442 384.2062,44.078 C402.4031,21.9011 421.7827,21.1807 433.8785,50.0186 C446.3538,27.039 469.5716,24.7457 485.1571,46.4492 C502.318,22.6425 520.0137,22.365 539.6659,43.4222 C553.312,23.5569 569.8295,17.1321 585.3573,41.4776 C601.6683,18.6205 627.0941,19.904 638.5249,46.703 C652.1565,20.939 672.0912,19.1869 690.0296,42.1508 C709.2555,19.2145 724.765,25.685 738.9297,47.6614 C752.2264,21.5618 771.4932,20.9953 789.1304,43.1455 C809.1091,20.3572 833.349,21.6318 847.4115,49.899 C861.277,25.4726 882.5511,31.4073 894.6897,51.7238 C910.0506,31.0469 935.1765,30.2679 948.1462,54.5659 C948.8912,54.9238 948.7879,55.4896 948.2176,55.917 C959.7459,60.0882 964.5458,70.3566 953.5911,79.624 C965.3698,84.5694 965.4361,92.4523 957.3743,100.922 C964.8863,108.6729 962.9199,116.3296 952.6518,119.5801 C961.808,134.3542 956.8813,143.0251 941.1462,147.5659 C945.4948,145.4351 947.7553,146.8195 948.9234,151.3046 C935.3537,178.265 913.3873,179.5366 896.6533,154.4847 C881.4839,178.8646 855.063,182.959 839.5022,154.9114 C827.7306,176.3744 807.7269,177.4744 794.9239,155.9817 C778.3108,182.4176 759.3011,178.0455 743.0942,155.5514 C725.6058,179.4173 706.0035,176.0133 690.4923,153.3178 C676.8698,179.6689 650.6047,176.7041 635.8728,154.5676 C622.26,180.3172 600.6735,179.6477 583.8413,158.11 C566.1716,177.6938 551.3745,174.9967 539.5212,152.049 C522.9037,178.2952 501.6561,173.789 487.1986,149.7993 C471.0702,180.2941 446.2087,175.1002 429.8798,150.0061 C416.4715,169.556 399.9158,174.8026 384.2715,152.4393 C369.7765,179.7374 345.7844,182.0427 328.7202,155.0692 C311.1949,176.4986 288.3888,172.9191 276.061,149.0299 C255.8924,171.4897 228.3746,174.3139 216.1462,140.5659 C217.1496,140.5716 217.7735,141.3735 217.1888,142.322 C207.038,137.4022 203.1987,126.4847 214.823,119.3248 C204.0192,117.1394 202.6677,109.7221 207.7082,101.2871 C198.9079,90.5505 202.6898,83.4838 214.7668,79.516 C200.4182,64.185 206.5703,54.7865 223.1462,47.5659 C226.9852,44.9637 231.5115,46.5697 231.9537,51.5247 " fill="#9DCCE0" style="stroke:#181818;stroke-width:1.0;"/><text fill="#000000" font-family="sans-serif" font-size="14" font-weight="bold" lengthAdjust="spacing" textLength="55" x="554.6462" y="65.561">Docker</text></g><!--MD5=[08af8945a84acfe1eabc0963aa87c412]
entity web--><g id="elem_web"><polygon fill="#F1F1F1" points="224.1462,103.5659,234.1462,93.5659,294.1462,93.5659,294.1462,129.8628,284.1462,139.8628,224.1462,139.8628,224.1462,103.5659" style="stroke:#181818;stroke-width:0.5;"/><line style="stroke:#181818;stroke-width:0.5;" x1="284.1462" x2="294.1462" y1="103.5659" y2="93.5659"/><line style="stroke:#181818;stroke-width:0.5;" x1="224.1462" x2="284.1462" y1="103.5659" y2="103.5659"/><line style="stroke:#181818;stroke-width:0.5;" x1="284.1462" x2="284.1462" y1="103.5659" y2="139.8628"/><text fill="#000000" font-family="sans-serif" font-size="14" lengthAdjust="spacing" textLength="30" x="239.1462" y="126.561">web</text></g><!--MD5=[7468467f3b6b392f1d176d828c753b77]
entity db--><g id="elem_db"><polygon fill="#F1F1F1" points="519.6462,103.5659,529.6462,93.5659,578.6462,93.5659,578.6462,129.8628,568.6462,139.8628,519.6462,139.8628,519.6462,103.5659" style="stroke:#181818;stroke-width:0.5;"/><line style="stroke:#181818;stroke-width:0.5;" x1="568.6462" x2="578.6462" y1="103.5659" y2="93.5659"/><line style="stroke:#181818;stroke-width:0.5;" x1="519.6462" x2="568.6462" y1="103.5659" y2="103.5659"/><line style="stroke:#181818;stroke-width:0.5;" x1="568.6462" x2="568.6462" y1="103.5659" y2="139.8628"/><text fill="#000000" font-family="sans-serif" font-size="14" lengthAdjust="spacing" textLength="19" x="534.6462" y="126.561">db</text></g><!--MD5=[18b82e70f4f9737a7037a413025c0620]
entity phpMyAdmin--><g id="elem_phpMyAdmin"><polygon fill="#F1F1F1" points="804.6462,103.5659,814.6462,93.5659,939.6462,93.5659,939.6462,129.8628,929.6462,139.8628,804.6462,139.8628,804.6462,103.5659" style="stroke:#181818;stroke-width:0.5;"/><line style="stroke:#181818;stroke-width:0.5;" x1="929.6462" x2="939.6462" y1="103.5659" y2="93.5659"/><line style="stroke:#181818;stroke-width:0.5;" x1="804.6462" x2="929.6462" y1="103.5659" y2="103.5659"/><line style="stroke:#181818;stroke-width:0.5;" x1="929.6462" x2="929.6462" y1="103.5659" y2="139.8628"/><text fill="#000000" font-family="sans-serif" font-size="14" lengthAdjust="spacing" textLength="95" x="819.6462" y="126.561">phpMyAdmin</text></g><!--MD5=[df72caad19033bb922ab6b65bf40b25f]
entity SQLクライアントソフト--><g id="elem_SQLクライアントソフト"><path d="M13.5761,103.5522 C16.9098,96.6545 21.6301,95.6094 26.5729,101.9755 C30.7698,96.674 34.8695,96.4061 39.0276,102.0196 C42.5879,96.9278 46.1051,97.6565 49.437,102.2647 C53.0499,96.177 58.4397,94.9067 62.7521,101.5321 C65.1015,94.7347 71.4039,94.3856 75.3024,99.9608 C77.7761,94.0782 82.6537,94.5972 85.875,99.2076 C89.9552,93.369 94.6536,92.7547 98.7017,99.2411 C102.2679,92.5933 107.201,92.2184 111.2422,98.7905 C115.3197,92.7481 119.3806,94.1922 122.835,99.4307 C126.1854,94.657 131.1888,95.6624 133.2697,100.7711 C137.5605,96.087 141.6685,94.8757 145.3571,101.4193 C149.0653,96.7814 154.4337,96.918 157.2357,102.4752 C160.7455,95.4025 165.3494,95.4513 169.6946,101.6935 C173.4008,95.6438 179.6146,95.4937 183.4015,101.6025 C190.8689,105.4605 192.8487,110.0258 186.5128,116.7239 C191.112,123.5873 190.4031,128.7768 182.117,131.9106 C179.3548,138.1585 174.1163,138.2367 170.1649,133.1663 C166.7539,139.5794 161.3056,138.7057 158.1162,132.9469 C156.0006,138.9826 150.2465,139.363 146.6261,134.539 C142.898,140.1835 137.9441,140.5778 134.4941,134.257 C130.6323,140.0677 125.477,139.8325 121.4198,134.4861 C118.341,138.2904 113.6434,138.1198 111.3312,133.5613 C107.7276,140.4106 100.8405,139.531 97.2612,133.5347 C93.8437,138.576 90.1871,138.253 87.0327,133.2664 C84.3729,138.4882 78.6181,139.1223 74.9322,134.5317 C70.4206,141.4204 66.3033,140.9944 62.0464,134.2902 C57.0283,139.7861 52.5089,139.7676 49.3611,132.4401 C47.0891,138.3641 43.1223,138.0661 39.3035,133.9967 C34.176,139.3177 28.8735,139.7461 25.2588,132.3288 C21.7563,138.3654 17.911,138.8068 13.9249,132.7832 C7.9597,128.2345 6.3755,122.8517 14.024,118.3967 C6,113.4618 6.0172,108.9573 13.5761,103.5522 " fill="#FFFF00" style="stroke:#181818;stroke-width:0.5;"/><text fill="#000000" font-family="sans-serif" font-size="14" lengthAdjust="spacing" textLength="154" x="20.1462" y="121.561">SQLクライアントソフト</text></g><!--MD5=[97ccaff76e2c68c5bb050ebab81f73c3]
entity ブラウザ--><g id="elem_ブラウザ"><path d="M581.583,227.1198 C584.1362,221.2513 589.2249,221.248 592.5821,226.3108 C595.7446,219.1074 601.0685,220.1308 605.3003,225.203 C609.4307,219.226 613.1641,219.841 616.9949,225.504 C620.4494,220.6817 623.7369,221.0408 626.8638,225.84 C631.1155,220.792 635.1991,219.6243 639.2584,226.0479 C642.7091,221.3415 648.6234,221.6199 651.1443,227.1296 C660.9843,228.3763 662.5884,234.1092 657.4154,241.7816 C662.4055,249.0279 661.7421,255.8814 651.4953,257.324 C649.5937,264.0255 644.6649,265.2938 639.7311,260.4003 C637.3829,267.9785 632.4958,268.6899 626.9646,263.6108 C624.3002,269.6635 620.149,270.0742 615.4682,265.8712 C610.485,270.2956 606.5412,267.9542 605.1605,262.2169 C599.7817,268.2259 595.3666,268.1762 591.8238,260.4361 C588.1634,264.2599 583.9395,264.251 581.7611,258.824 C570.9235,258.2691 568.0712,251.1483 572.9488,242.2418 C567.8252,233.1687 572.4521,228.0539 581.583,227.1198 " fill="#FFFF00" style="stroke:#181818;stroke-width:0.5;"/><text fill="#000000" font-family="sans-serif" font-size="14" lengthAdjust="spacing" textLength="56" x="587.1462" y="246.561">ブラウザ</text></g><!--MD5=[7f8cb4f31c80578b02bea1f2ba5d290e]
reverse link web to ブラウザ--><g id="link_web_ブラウザ"><path d="M298.9902,131.3319 C366.4312,154.6339 502.5132,201.6504 572.0752,225.6847 " fill="none" id="web-backto-ブラウザ" style="stroke:#181818;stroke-width:1.0;"/><polygon fill="#181818" points="294.2552,129.6959,301.4554,136.4158,298.9811,131.3288,304.0681,128.8545,294.2552,129.6959" style="stroke:#181818;stroke-width:1.0;"/><text fill="#000000" font-family="sans-serif" font-size="13" lengthAdjust="spacing" textLength="171" x="460.1462" y="184.6328">localhost:8001(PORT_PHP)</text></g><!--MD5=[ce0fa36060f0ad90e32862b9f0e4c27f]
reverse link phpMyAdmin to ブラウザ--><g id="link_phpMyAdmin_ブラウザ"><path d="M821.3712,141.8669 C773.7922,164.6381 703.4412,198.308 658.4502,219.8405 " fill="none" id="phpMyAdmin-backto-ブラウザ" style="stroke:#181818;stroke-width:1.0;"/><polygon fill="#181818" points="825.9032,139.6979,816.0583,139.9753,821.3932,141.8565,819.512,147.1914,825.9032,139.6979" style="stroke:#181818;stroke-width:1.0;"/><text fill="#000000" font-family="sans-serif" font-size="13" lengthAdjust="spacing" textLength="230" x="759.1462" y="184.6328">localhost:8888(PORT_PHPMYADMIN)</text></g><!--MD5=[fa4c4497f362bd97e6683ae7b9cc1101]
link SQLクライアントソフト to db--><g id="link_SQLクライアントソフト_db"><path d="M118.7992,93.2159 C139.4942,72.6999 172.7112,44.2049 208.1462,31.5659 C246.2082,17.9899 371.3082,6.9989 437.1462,29.5659 C471.5712,41.3659 503.5782,68.5399 524.4852,89.4029 " fill="none" id="SQLクライアントソフト-to-db" style="stroke:#181818;stroke-width:1.0;"/><polygon fill="#181818" points="528.2582,93.2199,524.7766,84.007,524.7435,89.6637,519.0867,89.6306,528.2582,93.2199" style="stroke:#181818;stroke-width:1.0;"/><text fill="#000000" font-family="sans-serif" font-size="13" lengthAdjust="spacing" textLength="164" x="272.1462" y="19.6328">localhost:3306(PORT_DB)</text></g><!--MD5=[44d8fab9c03fce0248c23b256ee4abe4]
link web to db--><g id="link_web_db"><path d="M294.4162,116.5659 C350.2762,116.5659 458.4602,116.5659 514.1492,116.5659 " fill="none" id="web-to-db" style="stroke:#181818;stroke-width:1.0;"/><polygon fill="#181818" points="519.3712,116.5659,510.3712,112.5659,514.3712,116.5659,510.3712,120.5659,519.3712,116.5659" style="stroke:#181818;stroke-width:1.0;"/><text fill="#000000" font-family="sans-serif" font-size="13" lengthAdjust="spacing" textLength="189" x="312.3962" y="109.6328">mysql(DB_HOST_NAME):3306</text></g><!--MD5=[0353158ea2c987504b7b609596cede4d]
reverse link db to phpMyAdmin--><g id="link_db_phpMyAdmin"><path d="M583.9082,116.5659 C636.4702,116.5659 737.1692,116.5659 804.5132,116.5659 " fill="none" id="db-backto-phpMyAdmin" style="stroke:#181818;stroke-width:1.0;"/><polygon fill="#181818" points="578.6662,116.5659,587.6662,120.5659,583.6662,116.5659,587.6662,112.5659,578.6662,116.5659" style="stroke:#181818;stroke-width:1.0;"/><text fill="#000000" font-family="sans-serif" font-size="13" lengthAdjust="spacing" textLength="189" x="597.1462" y="109.6328">mysql(DB_HOST_NAME):3306</text></g><!--MD5=[f5eff31a93ce89dd8137f4c75ecbb44e]
@startuml
cloud Docker #9DCCE0 {
  node web
  node db
  node phpMyAdmin
}

cloud SQLクライアントソフト #FFFF00
cloud ブラウザ #FFFF00

ブラウザ -up-> web: localhost:8001(PORT_PHP)
ブラウザ -up-> phpMyAdmin: localhost:8888(PORT_PHPMYADMIN)
SQLクライアントソフト  -> db: localhost:3306(PORT_DB)

web -> db: mysql(DB_HOST_NAME):3306
phpMyAdmin -left-> db: mysql(DB_HOST_NAME):3306
@enduml

PlantUML version 1.2022.6beta1(Unknown compile time)
(GPL source distribution)
Java Runtime: Java(TM) SE Runtime Environment
JVM: Java HotSpot(TM) 64-Bit Server VM
Default Encoding: UTF-8
Language: en
Country: US
--></g></svg>